# xmcd
#
# Track frame offsets:
# 150
# 14292
# 32505
# 47444
# 63202
# 79107
# 102412
# 118439
# 134646
# 151327
# 167824
# 184425
# 202017
# 219682
# 237529
# 255343
# 275192
# 298942
#
# Disc length: 4189 seconds
#
#
# Revision: 0
# Processed by: cddbd v1.5.2PL0 Copyright (c) Steve Scherf et al.
# Submitted via: FreeRIP 2.951 
#
DISCID=18105b12
DTITLE=João Bosco e Vinicius - Acustico pelo Brasil
DYEAR=1900
DGENRE=Sertanejo univercitario
TTITLE0=Chora, me liga
TTITLE1=quero provar q te amo
TTITLE2=Magia e misterio
TTITLE3=Sofrendo por amor
TTITLE4=insegurança
TTITLE5=Pagode em brasilia
TTITLE6=feito eu
TTITLE7=magia
TTITLE8=olha amor
TTITLE9=mania de me entragar
TTITLE10=nao e masi como antes
TTITLE11=tatuagem
TTITLE12=Faz de conta
TTITLE13=Aceito sua decisão
TTITLE14=Querendo te encontrar
TTITLE15=enquanto o inverno passar
TTITLE16=Nao aceito adeus
TTITLE17=Acabou
EXTD=
EXTT0=
EXTT1=
EXTT2=
EXTT3=
EXTT4=
EXTT5=
EXTT6=
EXTT7=
EXTT8=
EXTT9=
EXTT10=
EXTT11=
EXTT12=
EXTT13=
EXTT14=
EXTT15=
EXTT16=
EXTT17=
PLAYORDER=
